<svg width="156" height="157" viewBox="0 0 156 157" fill="none" xmlns="http://www.w3.org/2000/svg">
<rect x="0.180664" y="0.0634766" width="155.053" height="156.455" rx="38" fill="white"/>
<path d="M85.0255 126.909C81.1154 125.547 79.6049 123.351 77.6136 120.099C76.3769 123.327 72.9884 126.196 69.6352 127.106C65.0189 128.36 60.1171 126.486 55.7514 125.074L50.5442 123.376C47.8508 122.376 42.3258 120.499 43.2931 116.734L43.3145 116.658C43.4727 116.08 43.782 115.523 44.0266 114.976C45.3333 112.056 45.9053 108.706 45.9601 105.514L45.9533 98.2011L45.1472 87.0529L43.5862 73.7985L41.3039 59.2193C40.9271 57.3357 40.4204 55.4267 39.8393 53.5962L38.7492 50.4217C37.8766 47.802 37.8541 44.7045 39.7865 42.5148L39.8632 42.4293C41.8598 40.1824 42.693 40.6473 44.9585 39.9489L48.7912 38.6055C50.3546 38.0255 52.2777 37.5104 53.4703 36.2862C54.1616 35.5767 54.2405 34.8161 54.6073 33.9411C55.7716 31.1636 58.3941 29.2728 61.4155 29.0732L90.103 29.0635C96.2001 29.0588 98.6435 29.2744 101.131 35.1923C101.715 36.5807 102.375 36.6189 103.727 37.1681L106.576 38.3445C107.69 38.8128 108.819 39.3936 109.966 39.7667C110.996 40.1021 112.054 40.199 113.068 40.615C116.451 42.0031 118.018 45.9228 116.849 49.2998C116.362 50.7076 115.408 51.9484 114.695 53.2445C113.406 55.5878 112.577 58.4783 112.231 61.1284L111.987 63.054C111.777 65.1111 111.525 67.2295 111.492 69.2985C111.469 70.6999 111.623 72.2407 111.398 73.6189L111.273 74.5175C111.21 74.9679 111.236 75.4365 111.236 75.8912L111.216 118.612C111.216 118.913 111.248 119.271 111.173 119.564C110.972 120.361 107.377 122.35 106.554 122.772C101.583 125.322 90.4854 128.645 85.0255 126.909ZM68.2079 32.4551L64.3829 32.4807C64.6876 33.5648 65.2137 34.5812 65.6269 35.6277L70.6162 47.998C71.0282 49.0156 71.5149 50.0193 71.8726 51.0556L77.4048 65.2177C77.4627 65.4097 77.5833 65.6001 77.7057 65.758L80.2403 59.0857L90.6543 32.4788L68.2079 32.4551ZM60.6512 32.5888C58.7081 33.2898 58.0812 34.6046 57.3424 36.4167C55.9085 39.9335 52.0373 41.0668 48.7657 42.2135L45.5646 43.3407C44.8056 43.5811 44.064 43.512 43.3391 43.9352C41.7417 44.868 41.1912 46.6695 41.5336 48.4105C41.6737 49.123 42.0853 49.8579 42.3331 50.5458L44.3448 57.5341L46.4876 70.1352C46.7289 71.5171 46.8923 72.9099 47.0808 74.2994L48.5741 88.1716C48.5942 88.5764 48.5694 89.0152 48.7278 89.3932C49.4969 89.5429 50.3911 89.444 51.1787 89.4658C52.8338 89.5116 54.1827 89.6911 55.9449 89.5862L57.0177 89.4838C59.1881 89.3616 61.2212 89.178 63.3196 88.598C63.8331 88.456 64.3859 88.2474 64.9183 88.2176C66.8903 88.1072 67.2576 90.9128 65.3479 91.6013C61.0955 93.1345 53.5736 93.3911 48.8746 92.8177C48.8914 93.1778 48.9587 93.529 48.9887 93.8883L49.288 102.741C49.2817 108.411 48.92 112.182 46.5808 117.538C49.2556 119.643 56.6207 122.049 60.3225 123.03L63.6026 123.785C70.1219 125.174 75.1313 121.096 75.9229 114.52C76.0369 113.574 75.9365 112.492 75.9365 111.535V105.079L75.936 89.5475C75.9355 88.0506 76.0533 86.7858 75.3176 85.4315L56.0279 54.1647C54.5058 51.628 55.075 51.6525 55.883 48.9258L57.0978 44.9606C57.2615 44.4744 57.4119 43.7447 57.7791 43.3722C59.0486 42.084 61.0283 43.423 60.5266 45.2305L58.4674 51.8326L63.8483 60.248L75.4572 79.1494C75.6058 79.3975 75.8229 79.6264 75.9412 79.8889L75.9497 71.7343C75.9509 71.3073 76.0084 70.8524 75.8507 70.4505L60.6512 32.5888ZM94.2813 32.6058L79.6974 70.0132C79.6035 70.2783 79.4619 70.5457 79.3897 70.8147C79.2461 71.3503 79.2718 79.5228 79.4041 79.8474L79.5113 79.9365L96.1561 52.7207C96.3488 52.4287 96.5719 52.1451 96.7079 51.8214C96.4439 50.8472 96.0876 49.9037 95.7681 48.9469L95.0354 46.5669C94.7757 45.7322 94.3066 44.9397 94.6321 44.0497L94.6597 43.9725C94.9576 43.1771 96.0179 42.6832 96.8123 43.0235C97.5269 43.3296 97.6227 44.0605 97.8653 44.6982L99.8048 50.4804C100.066 51.1874 100.406 52.1048 100.062 52.8345L80.4633 84.8207C79.7102 86.1229 79.3307 86.093 79.3271 87.5534L79.3405 113.069C79.4309 116.602 80.8477 120.42 83.8123 122.511L85.0256 123.263C87.2546 124.424 89.6176 124.052 91.9885 123.623L99.9415 121.77C101.285 121.365 107.071 118.886 107.903 117.928C108.021 116.677 107.928 115.33 107.928 114.07L107.979 74.8622C107.997 74.3744 108.11 73.8951 108.131 73.4021C108.208 71.565 108.041 69.6843 108.19 67.8573L108.626 63.4375C109.13 58.8945 109.891 55.0566 112.117 51.0605C113.461 48.6493 115.475 45.5692 111.744 43.7814C111.37 43.6021 110.922 43.5474 110.516 43.4634C108.294 43.0031 106.241 41.8449 104.165 40.9696C102.286 40.1773 100.358 39.699 98.9681 38.1016C97.2419 36.1179 97.8985 33.7677 94.2813 32.6058Z" fill="black"/>
<path d="M105.272 92.8863C104.36 93.0119 103.371 92.9441 102.452 92.942L98.8728 92.9102C96.7284 92.7999 94.5464 92.4937 92.4241 92.1766C91.0865 91.9768 87.7212 91.7462 88.7711 89.375C89.0151 88.8237 89.4371 88.5485 89.964 88.3287C90.523 88.2754 90.8792 88.4064 91.41 88.5129L97.487 89.3366C97.9771 89.3775 98.4491 89.4695 98.9455 89.4897L104.635 89.4891C107.13 89.4481 106.858 92.4446 105.272 92.8863Z" fill="black"/>
</svg>
