<svg width="375" height="812" viewBox="0 0 375 812" fill="none" xmlns="http://www.w3.org/2000/svg">
<g clip-path="url(#clip0_303_2)">
<rect width="375" height="812" fill="white"/>
<circle cx="150" cy="650" r="20" fill="white"/>
<path d="M205.552 776.112C205.765 776.112 205.941 776.187 206.08 776.336C206.229 776.485 206.304 776.667 206.304 776.88V780.48C206.304 780.768 206.176 780.992 205.92 781.152C205.429 781.472 204.891 781.723 204.304 781.904C203.717 782.075 203.115 782.16 202.496 782.16C201.429 782.16 200.448 781.904 199.552 781.392C198.667 780.88 197.968 780.187 197.456 779.312C196.944 778.427 196.688 777.456 196.688 776.4C196.688 775.344 196.944 774.379 197.456 773.504C197.968 772.619 198.667 771.92 199.552 771.408C200.448 770.896 201.429 770.64 202.496 770.64C203.029 770.64 203.541 770.699 204.032 770.816C204.533 770.933 204.981 771.109 205.376 771.344C205.504 771.419 205.6 771.509 205.664 771.616C205.728 771.723 205.76 771.84 205.76 771.968C205.76 772.181 205.685 772.368 205.536 772.528C205.397 772.677 205.227 772.752 205.024 772.752C204.864 772.752 204.725 772.715 204.608 772.64C203.915 772.32 203.211 772.16 202.496 772.16C201.728 772.16 201.024 772.347 200.384 772.72C199.755 773.093 199.253 773.605 198.88 774.256C198.517 774.907 198.336 775.621 198.336 776.4C198.336 777.179 198.517 777.893 198.88 778.544C199.253 779.184 199.755 779.696 200.384 780.08C201.024 780.453 201.728 780.64 202.496 780.64C202.859 780.64 203.237 780.597 203.632 780.512C204.037 780.427 204.384 780.315 204.672 780.176V777.632H202.736C202.523 777.632 202.341 777.563 202.192 777.424C202.043 777.275 201.968 777.093 201.968 776.88C201.968 776.656 202.043 776.475 202.192 776.336C202.341 776.187 202.523 776.112 202.736 776.112H205.552ZM212.437 773.424C212.714 773.424 212.954 773.499 213.157 773.648C213.36 773.787 213.461 773.963 213.461 774.176C213.461 774.432 213.392 774.629 213.253 774.768C213.125 774.896 212.965 774.96 212.773 774.96C212.677 774.96 212.533 774.928 212.341 774.864C212.117 774.789 211.941 774.752 211.813 774.752C211.482 774.752 211.157 774.869 210.837 775.104C210.528 775.328 210.272 775.643 210.069 776.048C209.877 776.443 209.781 776.885 209.781 777.376V781.232C209.781 781.445 209.706 781.627 209.557 781.776C209.418 781.925 209.237 782 209.013 782C208.789 782 208.608 781.931 208.469 781.792C208.33 781.643 208.261 781.456 208.261 781.232V774.384C208.261 774.171 208.33 773.989 208.469 773.84C208.618 773.691 208.8 773.616 209.013 773.616C209.237 773.616 209.418 773.691 209.557 773.84C209.706 773.989 209.781 774.171 209.781 774.384V775.2C210.016 774.677 210.368 774.256 210.837 773.936C211.306 773.605 211.84 773.435 212.437 773.424ZM221.871 777.488C221.86 777.68 221.78 777.845 221.631 777.984C221.482 778.112 221.306 778.176 221.103 778.176H215.471C215.546 778.955 215.839 779.579 216.351 780.048C216.874 780.517 217.508 780.752 218.255 780.752C218.767 780.752 219.183 780.677 219.503 780.528C219.823 780.379 220.106 780.187 220.351 779.952C220.511 779.856 220.666 779.808 220.815 779.808C220.996 779.808 221.146 779.872 221.263 780C221.391 780.128 221.455 780.277 221.455 780.448C221.455 780.672 221.348 780.875 221.135 781.056C220.826 781.365 220.415 781.627 219.903 781.84C219.391 782.053 218.868 782.16 218.335 782.16C217.471 782.16 216.708 781.979 216.047 781.616C215.396 781.253 214.89 780.747 214.527 780.096C214.175 779.445 213.999 778.709 213.999 777.888C213.999 776.992 214.18 776.208 214.543 775.536C214.916 774.853 215.402 774.331 215.999 773.968C216.607 773.605 217.258 773.424 217.951 773.424C218.634 773.424 219.274 773.6 219.871 773.952C220.468 774.304 220.948 774.789 221.311 775.408C221.674 776.027 221.86 776.72 221.871 777.488ZM217.951 774.832C217.354 774.832 216.836 775.003 216.399 775.344C215.962 775.675 215.674 776.192 215.535 776.896H220.255V776.768C220.202 776.203 219.946 775.739 219.487 775.376C219.039 775.013 218.527 774.832 217.951 774.832ZM229.798 773.536C230.022 773.536 230.203 773.611 230.342 773.76C230.491 773.909 230.566 774.091 230.566 774.304V781.216C230.566 782.549 230.198 783.547 229.462 784.208C228.726 784.869 227.755 785.2 226.55 785.2C226.155 785.2 225.766 785.163 225.382 785.088C224.998 785.013 224.683 784.912 224.438 784.784C224.043 784.603 223.846 784.357 223.846 784.048C223.846 783.995 223.857 783.925 223.878 783.84C223.942 783.659 224.033 783.52 224.15 783.424C224.267 783.328 224.401 783.28 224.55 783.28C224.635 783.28 224.715 783.296 224.79 783.328C225.121 783.477 225.414 783.595 225.67 783.68C225.926 783.765 226.225 783.808 226.566 783.808C228.219 783.808 229.046 782.96 229.046 781.264V780.944C228.758 781.328 228.385 781.627 227.926 781.84C227.478 782.053 226.961 782.16 226.374 782.16C225.489 782.16 224.795 781.877 224.294 781.312C223.803 780.747 223.558 780.005 223.558 779.088V774.304C223.558 774.08 223.627 773.899 223.766 773.76C223.905 773.611 224.086 773.536 224.31 773.536C224.534 773.536 224.715 773.611 224.854 773.76C225.003 773.909 225.078 774.091 225.078 774.304V778.688C225.078 779.392 225.233 779.915 225.542 780.256C225.851 780.587 226.321 780.752 226.95 780.752C227.558 780.752 228.059 780.56 228.454 780.176C228.849 779.792 229.046 779.296 229.046 778.688V774.304C229.046 774.08 229.115 773.899 229.254 773.76C229.393 773.611 229.574 773.536 229.798 773.536ZM244.717 770.8C244.941 770.8 245.122 770.869 245.261 771.008C245.41 771.136 245.485 771.312 245.485 771.536C245.485 771.76 245.41 771.936 245.261 772.064C245.122 772.192 244.941 772.256 244.717 772.256H241.869V781.232C241.869 781.445 241.789 781.627 241.629 781.776C241.48 781.925 241.288 782 241.053 782C240.818 782 240.621 781.925 240.461 781.776C240.312 781.627 240.237 781.445 240.237 781.232V772.256H237.405C237.181 772.256 236.994 772.192 236.845 772.064C236.706 771.925 236.637 771.744 236.637 771.52C236.637 771.307 236.706 771.136 236.845 771.008C236.994 770.869 237.181 770.8 237.405 770.8H244.717ZM247.616 778.16C247.403 778.16 247.221 778.091 247.072 777.952C246.923 777.803 246.848 777.616 246.848 777.392C246.848 777.179 246.923 777.003 247.072 776.864C247.221 776.725 247.403 776.656 247.616 776.656H250.688C250.901 776.656 251.077 776.731 251.216 776.88C251.365 777.019 251.44 777.2 251.44 777.424C251.44 777.637 251.365 777.813 251.216 777.952C251.077 778.091 250.901 778.16 250.688 778.16H247.616ZM252.953 780.688C252.857 780.539 252.809 780.395 252.809 780.256C252.809 780.043 252.921 779.861 253.145 779.712C253.252 779.637 253.374 779.6 253.513 779.6C253.705 779.6 253.881 779.68 254.041 779.84C254.361 780.203 254.702 780.475 255.065 780.656C255.438 780.837 255.881 780.928 256.393 780.928C256.798 780.917 257.156 780.827 257.465 780.656C257.774 780.475 257.929 780.187 257.929 779.792C257.929 779.429 257.769 779.152 257.449 778.96C257.14 778.768 256.681 778.592 256.073 778.432C255.476 778.272 254.98 778.107 254.585 777.936C254.19 777.755 253.854 777.499 253.577 777.168C253.31 776.827 253.177 776.384 253.177 775.84C253.177 775.36 253.31 774.939 253.577 774.576C253.854 774.213 254.217 773.931 254.665 773.728C255.124 773.525 255.62 773.424 256.153 773.424C256.665 773.424 257.172 773.52 257.673 773.712C258.185 773.904 258.601 774.197 258.921 774.592C259.049 774.741 259.113 774.896 259.113 775.056C259.113 775.227 259.028 775.392 258.857 775.552C258.75 775.648 258.617 775.696 258.457 775.696C258.265 775.696 258.11 775.632 257.993 775.504C257.769 775.248 257.492 775.051 257.161 774.912C256.841 774.773 256.484 774.704 256.089 774.704C255.684 774.704 255.337 774.789 255.049 774.96C254.772 775.12 254.633 775.397 254.633 775.792C254.644 776.165 254.804 776.443 255.113 776.624C255.433 776.805 255.918 776.981 256.569 777.152C257.134 777.301 257.604 777.461 257.977 777.632C258.35 777.803 258.665 778.059 258.921 778.4C259.177 778.731 259.305 779.168 259.305 779.712C259.305 780.213 259.161 780.651 258.873 781.024C258.585 781.387 258.206 781.669 257.737 781.872C257.278 782.064 256.788 782.16 256.265 782.16C255.593 782.16 254.969 782.043 254.393 781.808C253.828 781.573 253.348 781.2 252.953 780.688ZM265.234 773.472C267.111 773.472 268.05 774.635 268.05 776.96V781.232C268.05 781.445 267.975 781.627 267.826 781.776C267.687 781.925 267.506 782 267.282 782C267.069 782 266.887 781.925 266.738 781.776C266.599 781.627 266.53 781.445 266.53 781.232V776.96C266.53 775.573 265.943 774.88 264.77 774.88C264.141 774.88 263.618 775.083 263.202 775.488C262.786 775.883 262.578 776.373 262.578 776.96V781.232C262.578 781.445 262.503 781.627 262.354 781.776C262.215 781.925 262.034 782 261.81 782C261.586 782 261.405 781.931 261.266 781.792C261.127 781.643 261.058 781.456 261.058 781.232V770.928C261.058 770.715 261.127 770.533 261.266 770.384C261.415 770.235 261.597 770.16 261.81 770.16C262.034 770.16 262.215 770.235 262.354 770.384C262.503 770.533 262.578 770.715 262.578 770.928V774.976C262.845 774.56 263.218 774.208 263.698 773.92C264.178 773.621 264.69 773.472 265.234 773.472ZM271.764 781.232C271.764 781.445 271.689 781.627 271.539 781.776C271.401 781.925 271.22 782 270.996 782C270.782 782 270.601 781.925 270.452 781.776C270.313 781.627 270.243 781.445 270.243 781.232V774.304C270.243 774.091 270.313 773.909 270.452 773.76C270.601 773.611 270.782 773.536 270.996 773.536C271.22 773.536 271.401 773.611 271.539 773.76C271.689 773.909 271.764 774.091 271.764 774.304V781.232ZM270.996 772.48C270.686 772.48 270.462 772.427 270.324 772.32C270.196 772.203 270.132 772.021 270.132 771.776V771.52C270.132 771.264 270.201 771.083 270.34 770.976C270.489 770.869 270.713 770.816 271.012 770.816C271.31 770.816 271.524 770.875 271.652 770.992C271.79 771.099 271.86 771.275 271.86 771.52V771.776C271.86 772.032 271.79 772.213 271.652 772.32C271.513 772.427 271.294 772.48 270.996 772.48ZM278.125 773.424C278.402 773.424 278.642 773.499 278.845 773.648C279.047 773.787 279.149 773.963 279.149 774.176C279.149 774.432 279.079 774.629 278.941 774.768C278.813 774.896 278.653 774.96 278.461 774.96C278.365 774.96 278.221 774.928 278.029 774.864C277.805 774.789 277.629 774.752 277.501 774.752C277.17 774.752 276.845 774.869 276.525 775.104C276.215 775.328 275.959 775.643 275.757 776.048C275.565 776.443 275.469 776.885 275.469 777.376V781.232C275.469 781.445 275.394 781.627 275.245 781.776C275.106 781.925 274.925 782 274.701 782C274.477 782 274.295 781.931 274.157 781.792C274.018 781.643 273.949 781.456 273.949 781.232V774.384C273.949 774.171 274.018 773.989 274.157 773.84C274.306 773.691 274.487 773.616 274.701 773.616C274.925 773.616 275.106 773.691 275.245 773.84C275.394 773.989 275.469 774.171 275.469 774.384V775.2C275.703 774.677 276.055 774.256 276.525 773.936C276.994 773.605 277.527 773.435 278.125 773.424ZM282.83 775.104V779.872C282.83 780.405 283.07 780.672 283.55 780.672C283.625 780.672 283.726 780.656 283.854 780.624C283.982 780.581 284.083 780.56 284.158 780.56C284.297 780.56 284.414 780.619 284.51 780.736C284.606 780.853 284.654 781.003 284.654 781.184C284.654 781.408 284.526 781.6 284.27 781.76C284.014 781.92 283.726 782 283.406 782C283.054 782 282.729 781.963 282.43 781.888C282.142 781.813 281.881 781.627 281.646 781.328C281.422 781.019 281.31 780.555 281.31 779.936V775.104H280.382C280.179 775.104 280.009 775.04 279.87 774.912C279.742 774.773 279.678 774.603 279.678 774.4C279.678 774.197 279.742 774.032 279.87 773.904C280.009 773.776 280.179 773.712 280.382 773.712H281.31V772.368C281.31 772.155 281.379 771.973 281.518 771.824C281.667 771.675 281.854 771.6 282.078 771.6C282.291 771.6 282.467 771.675 282.606 771.824C282.755 771.973 282.83 772.155 282.83 772.368V773.712H284.158C284.361 773.712 284.526 773.781 284.654 773.92C284.793 774.048 284.862 774.213 284.862 774.416C284.862 774.619 284.793 774.784 284.654 774.912C284.526 775.04 284.361 775.104 284.158 775.104H282.83Z" fill="black"/>
<path d="M207.14 807.02C207.14 808.047 206.793 808.913 206.1 809.62C205.407 810.327 204.52 810.8 203.44 811.04V812.28C203.44 812.627 203.32 812.913 203.08 813.14C202.853 813.38 202.567 813.5 202.22 813.5C201.887 813.5 201.607 813.38 201.38 813.14C201.153 812.913 201.04 812.627 201.04 812.28V811.16C200.32 811.093 199.66 810.94 199.06 810.7C198.473 810.46 197.9 810.1 197.34 809.62C196.98 809.3 196.8 808.947 196.8 808.56C196.8 808.253 196.913 807.987 197.14 807.76C197.367 807.52 197.64 807.4 197.96 807.4C198.213 807.4 198.44 807.48 198.64 807.64C199.053 807.973 199.447 808.24 199.82 808.44C200.193 808.627 200.6 808.753 201.04 808.82V804.92C198.36 804.427 197.02 803.087 197.02 800.9C197.02 799.793 197.393 798.887 198.14 798.18C198.887 797.46 199.853 797.02 201.04 796.86V796.2C201.04 795.853 201.153 795.567 201.38 795.34C201.62 795.1 201.913 794.98 202.26 794.98C202.593 794.98 202.873 795.1 203.1 795.34C203.327 795.567 203.44 795.853 203.44 796.2V796.94C204.573 797.14 205.507 797.553 206.24 798.18C206.627 798.487 206.82 798.84 206.82 799.24C206.82 799.547 206.707 799.82 206.48 800.06C206.253 800.287 205.987 800.4 205.68 800.4C205.48 800.4 205.3 800.34 205.14 800.22C204.74 799.887 204.173 799.6 203.44 799.36V803.06C204.733 803.367 205.673 803.82 206.26 804.42C206.847 805.007 207.14 805.873 207.14 807.02ZM199.38 800.8C199.38 801.24 199.52 801.6 199.8 801.88C200.08 802.147 200.493 802.36 201.04 802.52V799.2C200.493 799.307 200.08 799.5 199.8 799.78C199.52 800.06 199.38 800.4 199.38 800.8ZM203.44 808.64C203.827 808.48 204.14 808.273 204.38 808.02C204.62 807.753 204.74 807.467 204.74 807.16C204.74 806.787 204.633 806.467 204.42 806.2C204.207 805.92 203.88 805.687 203.44 805.5V808.64ZM219.374 805C219.694 805 219.96 805.107 220.174 805.32C220.387 805.533 220.494 805.8 220.494 806.12C220.494 806.427 220.387 806.687 220.174 806.9C219.96 807.1 219.694 807.2 219.374 807.2H218.534V809.78C218.534 810.127 218.414 810.42 218.174 810.66C217.947 810.887 217.66 811 217.314 811C216.98 811 216.7 810.887 216.474 810.66C216.247 810.42 216.134 810.127 216.134 809.78V807.2H210.934C210.64 807.2 210.367 807.087 210.114 806.86C209.86 806.62 209.734 806.34 209.734 806.02C209.734 805.727 209.834 805.46 210.034 805.22L216.354 797.48C216.607 797.16 216.94 797 217.354 797C217.687 797 217.967 797.12 218.194 797.36C218.42 797.587 218.534 797.873 218.534 798.22V805H219.374ZM216.134 805V801L212.894 805H216.134ZM226.694 797C227.027 797 227.307 797.12 227.534 797.36C227.76 797.587 227.874 797.873 227.874 798.22V809.78C227.874 810.127 227.747 810.42 227.494 810.66C227.24 810.887 226.927 811 226.554 811C226.18 811 225.874 810.887 225.634 810.66C225.394 810.42 225.274 810.127 225.274 809.78V800.3L224.034 801.06C223.834 801.18 223.62 801.24 223.394 801.24C223.06 801.24 222.774 801.113 222.534 800.86C222.307 800.607 222.194 800.327 222.194 800.02C222.194 799.807 222.247 799.607 222.354 799.42C222.474 799.233 222.627 799.087 222.814 798.98L225.834 797.18C226.06 797.06 226.347 797 226.694 797ZM231.739 810.98C231.352 810.98 231.052 810.88 230.839 810.68C230.639 810.467 230.539 810.167 230.539 809.78V809.44C230.539 809.053 230.639 808.76 230.839 808.56C231.052 808.347 231.352 808.24 231.739 808.24H231.999C232.386 808.24 232.679 808.347 232.879 808.56C233.092 808.76 233.199 809.053 233.199 809.44V809.78C233.199 810.167 233.092 810.467 232.879 810.68C232.679 810.88 232.386 810.98 231.999 810.98H231.739ZM240.499 811.2C239.379 811.2 238.413 810.9 237.599 810.3C236.799 809.7 236.193 808.86 235.779 807.78C235.366 806.687 235.159 805.427 235.159 804C235.159 802.573 235.366 801.32 235.779 800.24C236.193 799.147 236.799 798.3 237.599 797.7C238.413 797.1 239.379 796.8 240.499 796.8C241.619 796.8 242.579 797.1 243.379 797.7C244.193 798.3 244.806 799.147 245.219 800.24C245.633 801.32 245.839 802.573 245.839 804C245.839 805.427 245.633 806.687 245.219 807.78C244.806 808.86 244.193 809.7 243.379 810.3C242.579 810.9 241.619 811.2 240.499 811.2ZM240.499 808.8C241.353 808.8 242.019 808.393 242.499 807.58C242.993 806.767 243.239 805.573 243.239 804C243.239 802.427 242.993 801.233 242.499 800.42C242.019 799.607 241.353 799.2 240.499 799.2C239.646 799.2 238.973 799.607 238.479 800.42C237.999 801.233 237.759 802.427 237.759 804C237.759 805.573 237.999 806.767 238.479 807.58C238.973 808.393 239.646 808.8 240.499 808.8ZM252.785 811.2C251.665 811.2 250.698 810.9 249.885 810.3C249.085 809.7 248.478 808.86 248.065 807.78C247.651 806.687 247.445 805.427 247.445 804C247.445 802.573 247.651 801.32 248.065 800.24C248.478 799.147 249.085 798.3 249.885 797.7C250.698 797.1 251.665 796.8 252.785 796.8C253.905 796.8 254.865 797.1 255.665 797.7C256.478 798.3 257.091 799.147 257.505 800.24C257.918 801.32 258.125 802.573 258.125 804C258.125 805.427 257.918 806.687 257.505 807.78C257.091 808.86 256.478 809.7 255.665 810.3C254.865 810.9 253.905 811.2 252.785 811.2ZM252.785 808.8C253.638 808.8 254.305 808.393 254.785 807.58C255.278 806.767 255.525 805.573 255.525 804C255.525 802.427 255.278 801.233 254.785 800.42C254.305 799.607 253.638 799.2 252.785 799.2C251.931 799.2 251.258 799.607 250.765 800.42C250.285 801.233 250.045 802.427 250.045 804C250.045 805.573 250.285 806.767 250.765 807.58C251.258 808.393 251.931 808.8 252.785 808.8Z" fill="black"/>
<g filter="url(#filter0_d_303_2)">
<ellipse cx="187.5" cy="795" rx="269.5" ry="72" fill="white"/>
</g>
</g>
<defs>
<filter id="filter0_d_303_2" x="-162" y="683" width="699" height="304" filterUnits="userSpaceOnUse" color-interpolation-filters="sRGB">
<feFlood flood-opacity="0" result="BackgroundImageFix"/>
<feColorMatrix in="SourceAlpha" type="matrix" values="0 0 0 0 0 0 0 0 0 0 0 0 0 0 0 0 0 0 127 0" result="hardAlpha"/>
<feMorphology radius="40" operator="dilate" in="SourceAlpha" result="effect1_dropShadow_303_2"/>
<feOffset dy="40"/>
<feGaussianBlur stdDeviation="20"/>
<feComposite in2="hardAlpha" operator="out"/>
<feColorMatrix type="matrix" values="0 0 0 0 0 0 0 0 0 0 0 0 0 0 0 0 0 0 0.25 0"/>
<feBlend mode="normal" in2="BackgroundImageFix" result="effect1_dropShadow_303_2"/>
<feBlend mode="normal" in="SourceGraphic" in2="effect1_dropShadow_303_2" result="shape"/>
</filter>
<clipPath id="clip0_303_2">
<rect width="375" height="812" fill="white"/>
</clipPath>
</defs>
</svg>
