<?xml version="1.0" standalone="no"?>
<!DOCTYPE svg PUBLIC "-//W3C//DTD SVG 20010904//EN"
 "http://www.w3.org/TR/2001/REC-SVG-20010904/DTD/svg10.dtd">
<svg version="1.0" xmlns="http://www.w3.org/2000/svg"
 width="300.000000pt" height="300.000000pt" viewBox="0 0 300.000000 300.000000"
 preserveAspectRatio="xMidYMid meet">
<metadata>
Created by potrace 1.10, written by Peter Selinger 2001-2011
</metadata>
<g transform="translate(0.000000,300.000000) scale(0.100000,-0.100000)"
fill="#000000" stroke="none">
<path d="M1421 2767 c-29 -10 -37 -20 -51 -64 -9 -29 -22 -58 -28 -66 -14 -16
-68 -40 -129 -56 -52 -14 -61 -38 -45 -122 6 -32 8 -66 6 -76 -7 -26 10 -65
47 -107 21 -24 39 -63 55 -118 l24 -81 -29 -66 c-36 -81 -61 -199 -61 -285 0
-81 5 -85 140 -93 l100 -6 -5 -241 c-12 -549 -15 -606 -34 -594 -13 8 -26 4
-55 -16 -21 -14 -42 -26 -47 -26 -18 0 -51 -75 -69 -157 -35 -161 -59 -224
-100 -265 -40 -40 -70 -48 -90 -23 -16 19 -9 49 13 53 12 3 17 -3 17 -19 0
-17 3 -20 11 -12 7 7 9 19 6 28 -11 26 -37 29 -59 7 -39 -38 2 -102 56 -88 58
14 103 77 130 179 14 52 14 52 21 20 19 -87 61 -50 85 75 15 81 18 87 39 84
15 -2 34 6 52 24 l29 28 0 -25 c0 -24 16 -49 31 -49 4 0 9 9 12 21 3 12 12 19
19 17 9 -3 17 -50 27 -159 14 -163 37 -251 71 -269 28 -15 56 28 43 67 -18 53
-58 36 -42 -17 7 -24 7 -24 8 4 1 22 4 27 12 19 13 -13 8 -53 -6 -55 -5 -1
-19 16 -29 37 -21 41 -61 360 -51 403 4 17 -3 31 -24 53 -30 30 -30 30 -9 38
30 11 57 3 72 -23 8 -11 28 -84 46 -161 18 -77 37 -148 42 -157 11 -22 60 -48
91 -48 29 0 67 39 67 68 0 28 -36 48 -56 31 -16 -13 -20 -74 -4 -64 6 4 8 11
4 16 -6 11 13 39 27 39 5 0 9 -11 9 -25 0 -50 -85 -58 -116 -10 -8 13 -29 81
-45 152 -38 162 -45 181 -81 199 -35 18 -61 11 -89 -24 l-22 -27 7 229 c3 126
6 327 6 447 l0 217 120 3 c159 5 156 2 143 151 -10 101 -15 122 -52 197 -46
95 -48 111 -25 196 9 33 22 87 29 121 7 33 32 98 54 143 23 46 41 91 41 101 0
25 -28 44 -95 64 -73 23 -120 66 -131 122 -4 21 -12 42 -18 46 -16 11 -76 8
-115 -5z m79 -11 c0 -25 -16 -36 -56 -36 -34 0 -42 3 -38 14 3 8 13 17 22 19
23 6 72 8 72 3z m30 -11 c-7 -8 -8 -15 -2 -15 5 0 12 -12 15 -27 3 -16 15 -38
27 -51 l22 -23 -29 -25 c-30 -26 -43 -30 -43 -14 0 6 11 16 25 22 24 11 34 28
16 28 -15 0 -44 53 -48 87 -3 25 0 33 13 33 13 0 14 -3 4 -15z m-39 -67 c0
-18 4 -42 8 -53 6 -15 1 -29 -20 -55 -16 -19 -29 -40 -29 -47 0 -7 -4 -13 -9
-13 -16 0 -21 29 -12 77 5 26 7 61 4 79 -4 26 -1 33 13 37 39 10 44 7 45 -25z
m-71 -41 c0 -35 -3 -66 -6 -70 -3 -3 -19 9 -34 26 l-29 32 25 26 c13 14 24 30
24 37 0 7 5 12 10 12 6 0 10 -28 10 -63z m105 23 c19 -36 19 -40 0 -40 -8 0
-15 9 -15 19 0 11 -3 26 -6 35 -11 27 5 17 21 -14z m94 -47 c-2 -15 -89 -85
-89 -72 0 17 40 59 57 59 7 0 13 5 13 10 0 6 5 10 10 10 6 0 10 -3 9 -7z
m-259 -53 c18 -23 30 -44 26 -47 -6 -6 -75 66 -76 80 -1 18 21 4 50 -33z m-5
-54 c8 -16 15 -36 15 -45 0 -9 -12 7 -26 34 -14 28 -32 57 -40 66 -8 8 -14 20
-14 25 1 12 47 -45 65 -80z m-15 -38 c29 -62 43 -157 20 -143 -5 3 -10 17 -10
31 0 34 -38 143 -61 175 -10 15 -19 33 -19 39 0 21 38 -35 70 -102z m163 71
c-10 -16 -23 -29 -31 -29 -13 0 -12 2 18 47 21 32 33 16 13 -18z m107 33 c0
-4 -16 -23 -35 -42 -39 -37 -51 -68 -61 -152 -3 -32 -10 -58 -15 -58 -15 0 2
112 23 155 36 71 88 129 88 97z m114 -6 c13 5 11 -2 -9 -32 -22 -32 -26 -47
-22 -83 5 -46 -17 -131 -35 -131 -6 0 -8 10 -5 23 3 12 11 60 17 107 6 47 16
91 22 97 7 9 7 13 -1 13 -7 0 -9 5 -5 11 5 8 8 8 14 0 3 -7 14 -9 24 -5z
m-478 -27 c-3 -17 -6 -39 -7 -48 0 -10 -3 -8 -9 7 -8 18 -8 45 -1 70 1 1 6 2
12 2 8 0 9 -11 5 -31z m392 1 c0 -16 -4 -32 -9 -36 -17 -10 -23 4 -9 21 8 10
9 15 2 15 -6 0 -9 7 -6 15 10 25 21 17 22 -15z m101 -51 c-12 -27 -26 -49 -31
-49 -17 0 -7 42 19 83 34 54 43 31 12 -34z m-539 -1 c0 -55 -17 -57 -20 -3 -3
44 -1 55 10 55 6 0 10 -23 10 -52z m89 11 c21 -39 51 -138 51 -166 0 -7 -4
-13 -10 -13 -5 0 -10 8 -10 18 0 9 -14 48 -30 87 -26 61 -38 115 -26 115 2 0
14 -18 25 -41z m286 -14 c-14 -21 -25 -42 -25 -46 0 -5 -4 -9 -10 -9 -13 0 0
31 29 69 33 43 38 32 6 -14z m81 -27 c-14 -125 -17 -137 -37 -135 -22 1 -26
17 -5 17 10 0 16 20 21 68 7 76 15 112 22 112 3 0 3 -28 -1 -62z m-417 -83
c13 -49 13 -55 2 -55 -13 0 -31 83 -30 137 l2 48 7 -45 c5 -25 13 -63 19 -85z
m174 92 c8 -18 16 -57 19 -87 3 -30 3 -45 1 -32 -2 12 -9 22 -14 22 -5 0 -9 8
-9 19 0 10 -6 37 -14 59 -12 34 -12 52 1 52 1 0 9 -15 16 -33z m92 16 c-4 -10
-11 -49 -16 -87 -11 -88 -19 -96 -19 -19 0 64 15 123 32 123 6 0 7 -8 3 -17z
m81 -43 c-9 -22 -16 -58 -16 -80 0 -30 -4 -40 -16 -40 -13 0 -14 8 -8 48 7 49
41 128 51 118 3 -3 -2 -23 -11 -46z m35 -30 l-9 -45 -1 51 c-1 28 2 54 7 58
11 12 13 -15 3 -64z m-343 8 c30 -82 34 -98 24 -98 -5 0 -20 28 -32 63 -13 34
-25 68 -27 75 -3 6 0 12 5 12 6 0 19 -24 30 -52z m181 -28 c0 -29 -2 -31 -9
-15 -5 11 -9 34 -9 50 -1 23 2 26 9 15 5 -8 9 -31 9 -50z m-54 -22 c5 -30 4
-48 -3 -48 -11 0 -22 48 -22 94 1 43 16 15 25 -46z m186 -19 l-9 -34 -1 35 c0
19 3 46 7 60 l7 25 3 -26 c2 -15 -1 -42 -7 -60z m-378 -28 c-8 -11 -16 12 -19
56 l-4 48 13 -50 c7 -27 12 -52 10 -54z m89 -99 c16 -71 17 -52 2 51 -10 64
11 33 25 -37 15 -82 15 -156 -2 -156 -9 0 -20 32 -31 93 -10 50 -21 103 -24
117 -3 14 -1 21 4 17 5 -5 17 -43 26 -85z m52 42 c3 -26 6 -62 6 -80 0 -18 4
-35 9 -38 15 -10 20 -56 5 -56 -8 0 -15 18 -19 48 -3 26 -10 71 -15 101 -12
66 -12 71 -1 71 4 0 11 -21 15 -46z m25 -48 c1 -70 -5 -54 -12 29 -3 43 -2 60
3 45 4 -14 8 -47 9 -74z m31 -12 c0 -74 3 -103 11 -98 7 4 10 39 7 99 -1 51 0
96 4 100 7 8 15 -45 21 -147 l5 -68 -28 0 c-25 0 -28 3 -34 53 -9 79 -7 167 4
167 6 0 10 -42 10 -106z m94 19 c-2 -61 0 -77 5 -53 7 30 9 26 10 -32 1 -64 0
-68 -21 -67 -22 0 -22 1 -3 9 17 7 17 9 3 9 -16 1 -18 12 -18 89 0 90 7 132
20 132 4 0 6 -39 4 -87z m50 -24 c-2 -61 -4 -116 -4 -122 0 -7 -4 -6 -10 3
-18 28 -9 230 11 230 4 0 6 -50 3 -111z m24 4 c-3 -59 -1 -99 3 -88 6 15 8 12
7 -15 0 -19 11 -77 24 -128 13 -51 20 -91 14 -89 -7 2 -52 152 -54 180 0 1 -3
19 -7 40 -8 39 3 207 12 207 3 0 3 -48 1 -107z m23 55 l-9 -33 -1 36 c-1 20 2
39 6 43 13 12 15 -10 4 -46z m33 20 c-3 -18 -10 -50 -16 -72 -5 -21 -7 -40 -5
-43 4 -3 15 38 33 125 2 12 8 22 13 22 5 0 3 -28 -6 -62 -32 -139 -41 -172
-43 -158 -9 71 -9 103 2 158 6 34 15 62 20 62 4 0 5 -15 2 -32z m-254 -293 c0
-52 -3 -95 -8 -95 -4 0 -7 35 -6 78 l2 77 -10 -82 c-6 -46 -15 -83 -19 -83
-24 0 14 196 39 200 1 0 2 -43 2 -95z m57 71 c23 4 25 2 19 -18 -3 -13 -6 -51
-6 -85 0 -45 -4 -63 -13 -63 -10 0 -12 16 -9 66 3 48 1 65 -7 60 -6 -4 -11
-33 -11 -67 0 -37 -4 -59 -11 -59 -8 0 -10 16 -5 53 3 28 6 72 7 97 1 25 3 37
6 28 3 -12 12 -15 30 -12z m-106 -57 c-6 -24 -11 -61 -11 -81 0 -25 -5 -38
-13 -38 -9 0 -13 12 -13 34 1 19 4 32 8 30 4 -3 6 20 4 50 -2 31 1 53 6 50 4
-3 8 0 8 7 0 9 3 10 10 3 8 -8 8 -25 1 -55z m189 -16 c0 -54 3 -73 10 -63 8
12 10 11 10 -7 0 -19 -6 -23 -30 -23 l-30 0 0 78 c0 80 3 92 27 92 10 0 13
-20 13 -77z m59 -3 c22 -109 22 -120 0 -120 -21 0 -27 19 -6 21 10 0 10 2 0 6
-9 3 -13 29 -14 76 -1 58 -3 65 -9 37 -7 -34 -7 -33 -9 14 -1 40 1 46 13 37 7
-6 19 -38 25 -71z m126 -108 c-13 -14 -34 14 -50 68 -13 44 -21 57 -25 44 -4
-10 -7 2 -7 28 l0 46 43 -91 c24 -50 41 -93 39 -95z m-428 70 c-12 -39 -25
-72 -30 -72 -4 0 -4 12 -1 28 8 33 46 124 50 120 2 -2 -7 -36 -19 -76z m93
-186 c-8 -8 -11 5 -9 49 3 81 13 94 17 21 2 -34 -2 -64 -8 -70z m40 74 c0 -28
-5 -50 -10 -50 -10 0 -12 75 -3 93 9 17 13 4 13 -43z m28 -70 c0 -95 -3 -120
-14 -120 -8 0 -14 6 -14 13 0 8 -4 7 -10 -3 -8 -13 -10 -12 -10 3 0 9 7 17 15
17 16 0 17 11 17 143 0 37 3 67 8 67 5 0 8 -54 8 -120z m102 102 c0 -7 -4 -10
-10 -7 -5 3 -10 1 -10 -4 0 -6 5 -11 10 -11 6 0 10 -9 10 -20 0 -11 -3 -20 -7
-20 -18 1 -53 40 -53 58 0 15 6 19 30 18 18 0 30 -6 30 -14z m-228 -74 c-5
-117 -22 -125 -22 -10 0 67 3 92 13 92 9 0 11 -21 9 -82z m38 23 c0 -61 -7
-94 -19 -87 -10 6 -1 146 10 146 5 0 9 -27 9 -59z m289 -10 c1 -38 -2 -72 -8
-75 -6 -4 -11 24 -13 69 -2 50 1 75 8 75 7 0 12 -27 13 -69z m-399 -125 c-7
-7 -10 13 -10 66 0 109 14 132 18 29 2 -49 -1 -88 -8 -95z m39 53 c1 -26 -5
-51 -11 -57 -10 -8 -12 10 -9 86 3 81 5 91 12 57 4 -22 8 -61 8 -86z m321 65
c0 -42 -1 -43 -20 -32 -34 22 -22 100 13 81 4 -2 7 -24 7 -49z m60 -20 c0 -41
-3 -73 -7 -71 -8 5 -5 147 3 147 2 0 4 -34 4 -76z m54 39 c7 -48 8 -143 0
-143 -3 0 -14 5 -24 10 -17 9 -19 21 -18 90 0 69 3 80 18 80 12 0 19 -11 24
-37z m-201 -17 c21 -18 27 -32 27 -65 0 -22 -3 -41 -7 -41 -10 0 -33 49 -33
68 0 7 -7 20 -15 28 -16 16 -20 34 -7 34 4 0 19 -11 35 -24z m-112 -89 c-8 -8
-11 -2 -11 19 0 40 14 54 18 19 2 -15 -1 -32 -7 -38z m89 -8 c0 -32 -4 -59 -9
-59 -5 0 -9 29 -10 66 0 40 3 63 9 59 6 -3 10 -33 10 -66z m98 39 c7 -7 12
-22 12 -35 0 -18 -5 -22 -22 -19 -18 2 -23 10 -23 34 0 33 12 41 33 20z m-211
-47 c-4 -57 -17 -63 -17 -8 0 26 4 47 10 47 5 0 8 -18 7 -39z m223 -37 c0 -15
-12 -17 -47 -8 -38 10 -28 31 12 26 21 -3 35 -10 35 -18z m-176 -896 c22 -31
13 -33 -19 -4 -20 19 -24 26 -12 26 9 0 23 -10 31 -22z m-89 -105 c-12 -54
-26 -116 -30 -138 -10 -57 -24 -80 -38 -65 -9 10 -9 14 1 17 15 6 16 49 1 59
-6 3 -16 0 -21 -7 -8 -11 -9 -10 -4 4 3 10 13 47 21 83 21 93 51 142 86 144 4
0 -4 -44 -16 -97z m68 91 c3 -3 -3 -15 -13 -27 -23 -24 -35 -18 -25 12 6 20
25 28 38 15z m117 -66 c0 -24 -7 -23 -35 4 -19 18 -21 26 -13 42 10 19 11 18
29 -5 10 -13 19 -32 19 -41z m-122 -11 c2 -11 -3 -17 -16 -17 -26 0 -34 11
-20 27 14 17 32 12 36 -10z"/>
<path d="M1503 1960 c0 -36 2 -50 4 -32 2 17 2 47 0 65 -2 17 -4 3 -4 -33z"/>
</g>
</svg>
